<svg xmlns="http://www.w3.org/2000/svg" viewBox="0 0 323.07 46.57"><defs><style>.cls-1{fill:#0075c9;}</style></defs><title>tradinos_logo_horizontal_dark_blue</title><g id="Layer_2" data-name="Layer 2"><g id="Layer_1-2" data-name="Layer 1"><path class="cls-1" d="M72.55,13.18V36.71a2.06,2.06,0,0,1-.62,1.5,2,2,0,0,1-1.5.62,2,2,0,0,1-1.49-.62,2,2,0,0,1-.63-1.5V13.18H62.12a2,2,0,0,1-1.5-.62,2.06,2.06,0,0,1-.62-1.5,2.13,2.13,0,0,1,2.12-2.12H78.66a2,2,0,0,1,1.5.63,2,2,0,0,1,.62,1.49,2.12,2.12,0,0,1-2.12,2.12Z"/><path class="cls-1" d="M105.36,26.24a10.22,10.22,0,0,1-1.58.12h-6.4V36.71a2,2,0,0,1-.63,1.5,2.12,2.12,0,0,1-3.61-1.5V11.15A2.13,2.13,0,0,1,95.25,9h8.53a8.67,8.67,0,0,1,8.69,8.66,8.39,8.39,0,0,1-2.54,6.14c-.24.23-.46.44-.69.62l6.47,11.22a2.08,2.08,0,0,1,.29,1,2.32,2.32,0,0,1-.08.58,2.07,2.07,0,0,1-1,1.29,2,2,0,0,1-1.6.21,2,2,0,0,1-1.29-1Zm-1.58-13.06h-6.4v9h6.4a4.51,4.51,0,0,0,4.51-4.51,4.51,4.51,0,0,0-4.51-4.49Z"/><path class="cls-1" d="M135.37,30.52l-3.45,7.11a2,2,0,0,1-1.89,1.2,2,2,0,0,1-1.47-.61,2,2,0,0,1-.61-1.47,1.93,1.93,0,0,1,.32-1.08l12.32-25.4A2.19,2.19,0,0,1,142.5,9a2,2,0,0,1,1.48.63,1.81,1.81,0,0,1,.39.54l12.33,25.4a1.92,1.92,0,0,1,.35,1.16,2.09,2.09,0,0,1-3.55,1.48,2.33,2.33,0,0,1-.42-.6h0l-3.45-7.11Zm12.23-4.16-5.1-10.5-5.11,10.5Z"/><path class="cls-1" d="M171.55,38.83a2.12,2.12,0,0,1-2.12-2.12V11.15a2,2,0,0,1,.62-1.5,2,2,0,0,1,1.5-.63h8.21a14.35,14.35,0,0,1,10.53,4.37,14.36,14.36,0,0,1,4.37,10.54,14.38,14.38,0,0,1-4.37,10.54,14.35,14.35,0,0,1-10.53,4.36Zm8.21-25.56h-6.09V34.59h6.09a10.23,10.23,0,0,0,7.53-3.13,10.23,10.23,0,0,0,3.13-7.53,10.23,10.23,0,0,0-3.13-7.53A10.23,10.23,0,0,0,179.76,13.27Z"/><path class="cls-1" d="M210.28,9.65a2,2,0,0,1,.62,1.5V36.71a2.06,2.06,0,0,1-.62,1.5,2.12,2.12,0,0,1-3,0,2.06,2.06,0,0,1-.62-1.5V11.15a2.11,2.11,0,0,1,3.62-1.5Z"/><path class="cls-1" d="M227.38,17.09V36.71a2.12,2.12,0,0,1-2.12,2.12,2,2,0,0,1-1.49-.62,2,2,0,0,1-.63-1.5V11.15a2.11,2.11,0,0,1,3.62-1.5,2,2,0,0,1,.4.54l16.77,20.7V11.15a2.12,2.12,0,1,1,4.24,0V36.71a2.06,2.06,0,0,1-.62,1.5,2.12,2.12,0,0,1-3,0c-.05-.06-.11-.1-.16-.15Z"/><path class="cls-1" d="M285.82,13.39a14.35,14.35,0,0,1,4.36,10.54,14.37,14.37,0,0,1-4.36,10.54,14.92,14.92,0,0,1-21.08,0,14.37,14.37,0,0,1-4.36-10.54,14.35,14.35,0,0,1,4.36-10.54,14.9,14.9,0,0,1,21.08,0Zm-10.54-.12a10.22,10.22,0,0,0-7.54,3.13,10.26,10.26,0,0,0-3.12,7.53,10.26,10.26,0,0,0,3.12,7.53,10.65,10.65,0,0,0,15.08,0,10.26,10.26,0,0,0,3.12-7.53,10.67,10.67,0,0,0-10.66-10.66Z"/><path class="cls-1" d="M302.28,28.44a2,2,0,0,1,.61-1.47,2,2,0,0,1,1.47-.61,2,2,0,0,1,1.47.61,2,2,0,0,1,.61,1.47,6,6,0,0,0,1.82,4.41,6.24,6.24,0,0,0,10.65-4.41,6.25,6.25,0,0,0-6.23-6.24,6.54,6.54,0,0,1-6.55-6.54A6.55,6.55,0,0,1,317,10.77l.23.19a2,2,0,0,1,.6,1.47,2,2,0,0,1-.61,1.48,2,2,0,0,1-1.47.6,2,2,0,0,1-1.47-.6l-.15-.14,0,0a2.26,2.26,0,0,0-1.47-.52,2.39,2.39,0,1,0,0,4.78,10.4,10.4,0,0,1,10.39,10.39,10.4,10.4,0,1,1-20.79,0Z"/><path class="cls-1" d="M35.2,18.54a14,14,0,0,0-5.85,1.28,9.55,9.55,0,0,1-1.85-4.11,8.43,8.43,0,0,1-.15-1.23l1.52,1.36a1.83,1.83,0,1,0,2.44-2.73L24.43,7l-5.69,6.87a1.83,1.83,0,1,0,2.82,2.33l1.38-1.66a14,14,0,0,0,.24,2,13.84,13.84,0,0,0,4.23,7.62l1.24,1.15,1.42-.9a9.61,9.61,0,1,1-.58,15.88,2.2,2.2,0,1,0-2.62,3.53A14,14,0,1,0,35.2,18.54Z"/><path class="cls-1" d="M12.81,21a14,14,0,0,0,4,4.42,9.61,9.61,0,0,1-2.63,3.66,8.88,8.88,0,0,1-1,.75l.42-2a1.83,1.83,0,0,0-3.59-.74l-1.87,9L17,37.62a1.84,1.84,0,0,0,2.12-1.5,1.88,1.88,0,0,0-.22-1.22A1.81,1.81,0,0,0,17.59,34l-2.13-.36a14.72,14.72,0,0,0,1.63-1.22A13.9,13.9,0,0,0,21.58,25L22,23.31l-1.49-.79a9.63,9.63,0,1,1,14-7.43,2.21,2.21,0,0,0,1.94,2.43,2.19,2.19,0,0,0,2.43-1.94A13.86,13.86,0,0,0,37.08,7,14,14,0,1,0,12.81,21Z"/><path class="cls-1" d="M26.15,39.17A14.13,14.13,0,0,0,28,33.47a9.65,9.65,0,0,1,4.48.44,11.5,11.5,0,0,1,1.14.49L31.65,35a1.83,1.83,0,1,0,1.15,3.48l8.75-2.9-3.1-8.36a1.84,1.84,0,0,0-2.36-1.08,1.93,1.93,0,0,0-1,.8A1.84,1.84,0,0,0,35,28.54l.75,2a13.48,13.48,0,0,0-1.87-.8,13.84,13.84,0,0,0-8.72-.15l-1.61.5.06,1.68a9.62,9.62,0,1,1-13.46-8.44,2.2,2.2,0,0,0-1.75-4A14,14,0,1,0,26.15,39.17Z"/></g></g></svg>